{
	"asset":{
		"generator":"Khronos glTF Blender I/O v3.6.27",
		"version":"2.0"
	},
	"extensionsUsed":[
		"KHR_materials_specular",
		"KHR_materials_ior"
	],
	"scene":0,
	"scenes":[
		{
			"name":"Scene",
			"nodes":[
				0,
				1,
				2,
				3,
				4,
				5,
				6,
				7,
				8,
				9
			]
		}
	],
	"nodes":[
		{
			"mesh":0,
			"name":"45 GRADUSOV",
			"rotation":[
				0,
				0.7071068286895752,
				0.7071068286895752,
				2.2197248483735166e-07
			],
			"scale":[
				0.05531482398509979,
				0.05531482398509979,
				0.05531482398509979
			],
			"translation":[
				0.03897613286972046,
				0,
				0.025064021348953247
			]
		},
		{
			"mesh":1,
			"name":"90 GRADUSOV.001",
			"rotation":[
				-0.27059805393218994,
				0.6532815098762512,
				0.6532815098762512,
				0.27059808373451233
			],
			"scale":[
				0.05531482398509979,
				0.05531482398509979,
				0.05531482398509979
			],
			"translation":[
				0.6249289512634277,
				0,
				-0.6559529304504395
			]
		},
		{
			"mesh":2,
			"name":"TRUBA 1700 mm",
			"rotation":[
				0.7071068286895752,
				0,
				0,
				0.7071068286895752
			],
			"scale":[
				0.05531482398509979,
				0.05531482398509979,
				0.05531482398509979
			],
			"translation":[
				0.03644856810569763,
				0,
				0.1341029405593872
			]
		},
		{
			"mesh":3,
			"name":"TRUBA 1200 mm",
			"rotation":[
				0.5,
				0.5,
				-0.5,
				0.5
			],
			"scale":[
				0.05531482398509979,
				0.05531482398509979,
				0.05531482398509979
			],
			"translation":[
				0.2769012451171875,
				0,
				1.7407703399658203
			]
		},
		{
			"mesh":4,
			"name":"TRUBA 850 mm",
			"rotation":[
				0.6532815098762512,
				-0.27059805393218994,
				0.27059808373451233,
				0.6532815098762512
			],
			"scale":[
				0.05531482398509979,
				0.05531482398509979,
				0.05531482398509979
			],
			"translation":[
				0.546015739440918,
				0,
				-0.5808291435241699
			]
		},
		{
			"mesh":5,
			"name":"TRUBA 850 mm.001",
			"rotation":[
				0.27059808373451233,
				-0.6532815098762512,
				0.6532815098762512,
				0.27059805393218994
			],
			"scale":[
				0.05531482398509979,
				0.05531482398509979,
				0.05531482398509979
			],
			"translation":[
				1.2531118392944336,
				0,
				-0.21492552757263184
			]
		},
		{
			"mesh":6,
			"name":"45 GRADUSOV.001",
			"rotation":[
				-0.6532813906669617,
				0.2705984115600586,
				0.2705979645252228,
				0.6532815098762512
			],
			"scale":[
				0.055314820259809494,
				0.055314820259809494,
				0.05531482398509979
			],
			"translation":[
				1.3286733627319336,
				0,
				-0.13719940185546875
			]
		},
		{
			"mesh":7,
			"name":"TRUBA 1700 mm.001",
			"rotation":[
				0,
				0.7071068286895752,
				-0.7071068286895752,
				1.1520233300643667e-07
			],
			"scale":[
				0.05531482398509979,
				0.05531482398509979,
				0.05531482398509979
			],
			"translation":[
				1.3984375,
				0,
				1.4996862411499023
			]
		},
		{
			"mesh":8,
			"name":"90 GRADUSOV.002",
			"rotation":[
				-0.7071068286895752,
				0,
				0,
				0.7071068286895752
			],
			"scale":[
				0.05531482398509979,
				0.05531482398509979,
				0.05531482398509979
			],
			"translation":[
				1.3957281112670898,
				0,
				1.6086721420288086
			]
		},
		{
			"mesh":9,
			"name":"90 GRADUSOV.003",
			"rotation":[
				-0.5000000596046448,
				-0.5,
				-0.5,
				0.5
			],
			"scale":[
				0.05531482398509979,
				0.05531482398509979,
				0.05531482398509979
			],
			"translation":[
				0.16795456409454346,
				0,
				1.738377571105957
			]
		}
	],
	"materials":[
		{
			"doubleSided":true,
			"extensions":{
				"KHR_materials_specular":{
					"specularColorTexture":{
						"index":0,
						"texCoord":1
					},
					"specularColorFactor":[
						1.4132211693100267,
						1.1152837566364082,
						1
					]
				},
				"KHR_materials_ior":{
					"ior":1.4500000476837158
				}
			},
			"name":"\u041c\u0430\u0442\u0435\u0440\u0438\u0430\u043b",
			"pbrMetallicRoughness":{
				"baseColorTexture":{
					"index":1,
					"texCoord":1
				},
				"metallicFactor":0.35681819915771484,
				"roughnessFactor":0.1577271968126297
			}
		},
		{
			"doubleSided":true,
			"name":"Rubber",
			"pbrMetallicRoughness":{
				"baseColorFactor":[
					0,
					0,
					0,
					1
				],
				"metallicFactor":0,
				"roughnessFactor":0.836363673210144
			}
		},
		{
			"doubleSided":true,
			"extensions":{
				"KHR_materials_specular":{
					"specularColorTexture":{
						"index":0
					},
					"specularColorFactor":[
						1.4132211693100267,
						1.1152837566364082,
						1
					]
				},
				"KHR_materials_ior":{
					"ior":1.4500000476837158
				}
			},
			"name":"\u041c\u0430\u0442\u0435\u0440\u0438\u0430\u043b",
			"pbrMetallicRoughness":{
				"baseColorTexture":{
					"index":1
				},
				"metallicFactor":0.35681819915771484,
				"roughnessFactor":0.1577271968126297
			}
		}
	],
	"meshes":[
		{
			"name":"\u041e\u043a\u0440\u0443\u0436\u043d\u043e\u0441\u0442\u044c",
			"primitives":[
				{
					"attributes":{
						"POSITION":0,
						"NORMAL":1,
						"TEXCOORD_0":2,
						"TEXCOORD_1":3
					},
					"indices":4,
					"material":0
				},
				{
					"attributes":{
						"POSITION":5,
						"NORMAL":6,
						"TEXCOORD_0":7,
						"TEXCOORD_1":8
					},
					"indices":9,
					"material":1
				}
			]
		},
		{
			"name":"\u041e\u043a\u0440\u0443\u0436\u043d\u043e\u0441\u0442\u044c.001",
			"primitives":[
				{
					"attributes":{
						"POSITION":10,
						"NORMAL":11,
						"TEXCOORD_0":12
					},
					"indices":13,
					"material":2
				},
				{
					"attributes":{
						"POSITION":14,
						"NORMAL":15,
						"TEXCOORD_0":16
					},
					"indices":17,
					"material":1
				}
			]
		},
		{
			"name":"\u041e\u043a\u0440\u0443\u0436\u043d\u043e\u0441\u0442\u044c.002",
			"primitives":[
				{
					"attributes":{
						"POSITION":18,
						"NORMAL":19,
						"TEXCOORD_0":20
					},
					"indices":21,
					"material":2
				},
				{
					"attributes":{
						"POSITION":22,
						"NORMAL":23,
						"TEXCOORD_0":24
					},
					"indices":25,
					"material":1
				}
			]
		},
		{
			"name":"\u041e\u043a\u0440\u0443\u0436\u043d\u043e\u0441\u0442\u044c.004",
			"primitives":[
				{
					"attributes":{
						"POSITION":26,
						"NORMAL":27,
						"TEXCOORD_0":28
					},
					"indices":21,
					"material":2
				},
				{
					"attributes":{
						"POSITION":29,
						"NORMAL":30,
						"TEXCOORD_0":31
					},
					"indices":25,
					"material":1
				}
			]
		},
		{
			"name":"\u041e\u043a\u0440\u0443\u0436\u043d\u043e\u0441\u0442\u044c.005",
			"primitives":[
				{
					"attributes":{
						"POSITION":32,
						"NORMAL":33,
						"TEXCOORD_0":34
					},
					"indices":21,
					"material":2
				},
				{
					"attributes":{
						"POSITION":35,
						"NORMAL":36,
						"TEXCOORD_0":37
					},
					"indices":25,
					"material":1
				}
			]
		},
		{
			"name":"\u041e\u043a\u0440\u0443\u0436\u043d\u043e\u0441\u0442\u044c.008",
			"primitives":[
				{
					"attributes":{
						"POSITION":38,
						"NORMAL":39,
						"TEXCOORD_0":40
					},
					"indices":21,
					"material":2
				},
				{
					"attributes":{
						"POSITION":41,
						"NORMAL":42,
						"TEXCOORD_0":43
					},
					"indices":25,
					"material":1
				}
			]
		},
		{
			"name":"\u041e\u043a\u0440\u0443\u0436\u043d\u043e\u0441\u0442\u044c.009",
			"primitives":[
				{
					"attributes":{
						"POSITION":44,
						"NORMAL":45,
						"TEXCOORD_0":46,
						"TEXCOORD_1":47
					},
					"indices":4,
					"material":0
				},
				{
					"attributes":{
						"POSITION":48,
						"NORMAL":49,
						"TEXCOORD_0":50,
						"TEXCOORD_1":51
					},
					"indices":9,
					"material":1
				}
			]
		},
		{
			"name":"\u041e\u043a\u0440\u0443\u0436\u043d\u043e\u0441\u0442\u044c.010",
			"primitives":[
				{
					"attributes":{
						"POSITION":52,
						"NORMAL":53,
						"TEXCOORD_0":54
					},
					"indices":55,
					"material":2
				}
			]
		},
		{
			"name":"\u041e\u043a\u0440\u0443\u0436\u043d\u043e\u0441\u0442\u044c.011",
			"primitives":[
				{
					"attributes":{
						"POSITION":56,
						"NORMAL":57,
						"TEXCOORD_0":58
					},
					"indices":13,
					"material":2
				},
				{
					"attributes":{
						"POSITION":59,
						"NORMAL":60,
						"TEXCOORD_0":61
					},
					"indices":17,
					"material":1
				}
			]
		},
		{
			"name":"\u041e\u043a\u0440\u0443\u0436\u043d\u043e\u0441\u0442\u044c.012",
			"primitives":[
				{
					"attributes":{
						"POSITION":62,
						"NORMAL":63,
						"TEXCOORD_0":64
					},
					"indices":13,
					"material":2
				},
				{
					"attributes":{
						"POSITION":65,
						"NORMAL":66,
						"TEXCOORD_0":67
					},
					"indices":17,
					"material":1
				}
			]
		}
	],
	"textures":[
		{
			"sampler":0,
			"source":0
		},
		{
			"sampler":0,
			"source":1
		}
	],
	"images":[
		{
			"mimeType":"image/png",
			"name":"Image",
			"uri":"Image.png"
		},
		{
			"mimeType":"image/png",
			"name":"\u0411\u0435\u0437 \u0438\u043c\u0435\u043d\u0438-1",
			"uri":"%D0%91%D0%B5%D0%B7%20%D0%B8%D0%BC%D0%B5%D0%BD%D0%B8-1.png"
		}
	],
	"accessors":[
		{
			"bufferView":0,
			"componentType":5126,
			"count":12674,
			"max":[
				1,
				0.2583622634410858,
				1.3054847717285156
			],
			"min":[
				-2.4123435020446777,
				-4.136234283447266,
				-1.3054850101470947
			],
			"type":"VEC3"
		},
		{
			"bufferView":1,
			"componentType":5126,
			"count":12674,
			"type":"VEC3"
		},
		{
			"bufferView":2,
			"componentType":5126,
			"count":12674,
			"type":"VEC2"
		},
		{
			"bufferView":3,
			"componentType":5126,
			"count":12674,
			"type":"VEC2"
		},
		{
			"bufferView":4,
			"componentType":5123,
			"count":58368,
			"type":"SCALAR"
		},
		{
			"bufferView":5,
			"componentType":5126,
			"count":2043,
			"max":[
				-0.48521894216537476,
				-2.1954846382141113,
				1.0791139602661133
			],
			"min":[
				-2.249361038208008,
				-3.95725679397583,
				-1.0791141986846924
			],
			"type":"VEC3"
		},
		{
			"bufferView":6,
			"componentType":5126,
			"count":2043,
			"type":"VEC3"
		},
		{
			"bufferView":7,
			"componentType":5126,
			"count":2043,
			"type":"VEC2"
		},
		{
			"bufferView":8,
			"componentType":5126,
			"count":2043,
			"type":"VEC2"
		},
		{
			"bufferView":9,
			"componentType":5123,
			"count":9216,
			"type":"SCALAR"
		},
		{
			"bufferView":10,
			"componentType":5126,
			"count":10416,
			"max":[
				1.0242919921875,
				0.2688389718532562,
				1.3054847717285156
			],
			"min":[
				-2.915436267852783,
				-3.653867721557617,
				-1.3054850101470947
			],
			"type":"VEC3"
		},
		{
			"bufferView":11,
			"componentType":5126,
			"count":10416,
			"type":"VEC3"
		},
		{
			"bufferView":12,
			"componentType":5126,
			"count":10416,
			"type":"VEC2"
		},
		{
			"bufferView":13,
			"componentType":5123,
			"count":54528,
			"type":"SCALAR"
		},
		{
			"bufferView":14,
			"componentType":5126,
			"count":1792,
			"max":[
				-2.3926894664764404,
				-1.2678924798965454,
				1.0791140794754028
			],
			"min":[
				-2.7293338775634766,
				-3.4261224269866943,
				-1.079114317893982
			],
			"type":"VEC3"
		},
		{
			"bufferView":15,
			"componentType":5126,
			"count":1792,
			"type":"VEC3"
		},
		{
			"bufferView":16,
			"componentType":5126,
			"count":1792,
			"type":"VEC2"
		},
		{
			"bufferView":17,
			"componentType":5123,
			"count":9216,
			"type":"SCALAR"
		},
		{
			"bufferView":18,
			"componentType":5126,
			"count":7335,
			"max":[
				1.3489073514938354,
				27.567134857177734,
				1.305484652519226
			],
			"min":[
				-1.263915777206421,
				-3.148221969604492,
				-1.305484652519226
			],
			"type":"VEC3"
		},
		{
			"bufferView":19,
			"componentType":5126,
			"count":7335,
			"type":"VEC3"
		},
		{
			"bufferView":20,
			"componentType":5126,
			"count":7335,
			"type":"VEC2"
		},
		{
			"bufferView":21,
			"componentType":5123,
			"count":36096,
			"type":"SCALAR"
		},
		{
			"bufferView":22,
			"componentType":5126,
			"count":1792,
			"max":[
				1.1211624145507812,
				-2.6254751682281494,
				1.0791139602661133
			],
			"min":[
				-1.0370674133300781,
				-2.9621195793151855,
				-1.0791139602661133
			],
			"type":"VEC3"
		},
		{
			"bufferView":23,
			"componentType":5126,
			"count":1792,
			"type":"VEC3"
		},
		{
			"bufferView":24,
			"componentType":5126,
			"count":1792,
			"type":"VEC2"
		},
		{
			"bufferView":25,
			"componentType":5123,
			"count":9216,
			"type":"SCALAR"
		},
		{
			"bufferView":26,
			"componentType":5126,
			"count":7335,
			"max":[
				1.3489073514938354,
				18.546043395996094,
				1.305484652519226
			],
			"min":[
				-1.263915777206421,
				-3.148221969604492,
				-1.305484652519226
			],
			"type":"VEC3"
		},
		{
			"bufferView":27,
			"componentType":5126,
			"count":7335,
			"type":"VEC3"
		},
		{
			"bufferView":28,
			"componentType":5126,
			"count":7335,
			"type":"VEC2"
		},
		{
			"bufferView":29,
			"componentType":5126,
			"count":1792,
			"max":[
				1.1211624145507812,
				-2.6254751682281494,
				1.0791139602661133
			],
			"min":[
				-1.0370674133300781,
				-2.9621195793151855,
				-1.0791139602661133
			],
			"type":"VEC3"
		},
		{
			"bufferView":30,
			"componentType":5126,
			"count":1792,
			"type":"VEC3"
		},
		{
			"bufferView":31,
			"componentType":5126,
			"count":1792,
			"type":"VEC2"
		},
		{
			"bufferView":32,
			"componentType":5126,
			"count":7335,
			"max":[
				1.3489073514938354,
				12.200545310974121,
				1.305484652519226
			],
			"min":[
				-1.263915777206421,
				-3.148221969604492,
				-1.305484652519226
			],
			"type":"VEC3"
		},
		{
			"bufferView":33,
			"componentType":5126,
			"count":7335,
			"type":"VEC3"
		},
		{
			"bufferView":34,
			"componentType":5126,
			"count":7335,
			"type":"VEC2"
		},
		{
			"bufferView":35,
			"componentType":5126,
			"count":1792,
			"max":[
				1.1211624145507812,
				-2.6254751682281494,
				1.0791139602661133
			],
			"min":[
				-1.0370674133300781,
				-2.9621195793151855,
				-1.0791139602661133
			],
			"type":"VEC3"
		},
		{
			"bufferView":36,
			"componentType":5126,
			"count":1792,
			"type":"VEC3"
		},
		{
			"bufferView":37,
			"componentType":5126,
			"count":1792,
			"type":"VEC2"
		},
		{
			"bufferView":38,
			"componentType":5126,
			"count":7335,
			"max":[
				1.3489073514938354,
				12.200545310974121,
				1.305484652519226
			],
			"min":[
				-1.263915777206421,
				-3.148221969604492,
				-1.305484652519226
			],
			"type":"VEC3"
		},
		{
			"bufferView":39,
			"componentType":5126,
			"count":7335,
			"type":"VEC3"
		},
		{
			"bufferView":40,
			"componentType":5126,
			"count":7335,
			"type":"VEC2"
		},
		{
			"bufferView":41,
			"componentType":5126,
			"count":1792,
			"max":[
				1.1211624145507812,
				-2.6254751682281494,
				1.0791139602661133
			],
			"min":[
				-1.0370674133300781,
				-2.9621195793151855,
				-1.0791139602661133
			],
			"type":"VEC3"
		},
		{
			"bufferView":42,
			"componentType":5126,
			"count":1792,
			"type":"VEC3"
		},
		{
			"bufferView":43,
			"componentType":5126,
			"count":1792,
			"type":"VEC2"
		},
		{
			"bufferView":44,
			"componentType":5126,
			"count":12674,
			"max":[
				1,
				0.2583622634410858,
				1.3054847717285156
			],
			"min":[
				-2.4123435020446777,
				-4.136234283447266,
				-1.3054850101470947
			],
			"type":"VEC3"
		},
		{
			"bufferView":45,
			"componentType":5126,
			"count":12674,
			"type":"VEC3"
		},
		{
			"bufferView":46,
			"componentType":5126,
			"count":12674,
			"type":"VEC2"
		},
		{
			"bufferView":47,
			"componentType":5126,
			"count":12674,
			"type":"VEC2"
		},
		{
			"bufferView":48,
			"componentType":5126,
			"count":2043,
			"max":[
				-0.48521894216537476,
				-2.1954846382141113,
				1.0791139602661133
			],
			"min":[
				-2.249361038208008,
				-3.95725679397583,
				-1.0791141986846924
			],
			"type":"VEC3"
		},
		{
			"bufferView":49,
			"componentType":5126,
			"count":2043,
			"type":"VEC3"
		},
		{
			"bufferView":50,
			"componentType":5126,
			"count":2043,
			"type":"VEC2"
		},
		{
			"bufferView":51,
			"componentType":5126,
			"count":2043,
			"type":"VEC2"
		},
		{
			"bufferView":52,
			"componentType":5126,
			"count":9127,
			"max":[
				1.3489073514938354,
				27.567134857177734,
				1.305484652519226
			],
			"min":[
				-1.263915777206421,
				-3.148221969604492,
				-1.305484652519226
			],
			"type":"VEC3"
		},
		{
			"bufferView":53,
			"componentType":5126,
			"count":9127,
			"type":"VEC3"
		},
		{
			"bufferView":54,
			"componentType":5126,
			"count":9127,
			"type":"VEC2"
		},
		{
			"bufferView":55,
			"componentType":5123,
			"count":45312,
			"type":"SCALAR"
		},
		{
			"bufferView":56,
			"componentType":5126,
			"count":10416,
			"max":[
				1.0242919921875,
				0.2688389718532562,
				1.3054847717285156
			],
			"min":[
				-2.915436267852783,
				-3.653867721557617,
				-1.3054850101470947
			],
			"type":"VEC3"
		},
		{
			"bufferView":57,
			"componentType":5126,
			"count":10416,
			"type":"VEC3"
		},
		{
			"bufferView":58,
			"componentType":5126,
			"count":10416,
			"type":"VEC2"
		},
		{
			"bufferView":59,
			"componentType":5126,
			"count":1792,
			"max":[
				-2.3926894664764404,
				-1.2678924798965454,
				1.0791140794754028
			],
			"min":[
				-2.7293338775634766,
				-3.4261224269866943,
				-1.079114317893982
			],
			"type":"VEC3"
		},
		{
			"bufferView":60,
			"componentType":5126,
			"count":1792,
			"type":"VEC3"
		},
		{
			"bufferView":61,
			"componentType":5126,
			"count":1792,
			"type":"VEC2"
		},
		{
			"bufferView":62,
			"componentType":5126,
			"count":10416,
			"max":[
				1.0242919921875,
				0.2688389718532562,
				1.3054847717285156
			],
			"min":[
				-2.915436267852783,
				-3.653867721557617,
				-1.3054850101470947
			],
			"type":"VEC3"
		},
		{
			"bufferView":63,
			"componentType":5126,
			"count":10416,
			"type":"VEC3"
		},
		{
			"bufferView":64,
			"componentType":5126,
			"count":10416,
			"type":"VEC2"
		},
		{
			"bufferView":65,
			"componentType":5126,
			"count":1792,
			"max":[
				-2.3926894664764404,
				-1.2678924798965454,
				1.0791140794754028
			],
			"min":[
				-2.7293338775634766,
				-3.4261224269866943,
				-1.079114317893982
			],
			"type":"VEC3"
		},
		{
			"bufferView":66,
			"componentType":5126,
			"count":1792,
			"type":"VEC3"
		},
		{
			"bufferView":67,
			"componentType":5126,
			"count":1792,
			"type":"VEC2"
		}
	],
	"bufferViews":[
		{
			"buffer":0,
			"byteLength":152088,
			"byteOffset":0,
			"target":34962
		},
		{
			"buffer":0,
			"byteLength":152088,
			"byteOffset":152088,
			"target":34962
		},
		{
			"buffer":0,
			"byteLength":101392,
			"byteOffset":304176,
			"target":34962
		},
		{
			"buffer":0,
			"byteLength":101392,
			"byteOffset":405568,
			"target":34962
		},
		{
			"buffer":0,
			"byteLength":116736,
			"byteOffset":506960,
			"target":34963
		},
		{
			"buffer":0,
			"byteLength":24516,
			"byteOffset":623696,
			"target":34962
		},
		{
			"buffer":0,
			"byteLength":24516,
			"byteOffset":648212,
			"target":34962
		},
		{
			"buffer":0,
			"byteLength":16344,
			"byteOffset":672728,
			"target":34962
		},
		{
			"buffer":0,
			"byteLength":16344,
			"byteOffset":689072,
			"target":34962
		},
		{
			"buffer":0,
			"byteLength":18432,
			"byteOffset":705416,
			"target":34963
		},
		{
			"buffer":0,
			"byteLength":124992,
			"byteOffset":723848,
			"target":34962
		},
		{
			"buffer":0,
			"byteLength":124992,
			"byteOffset":848840,
			"target":34962
		},
		{
			"buffer":0,
			"byteLength":83328,
			"byteOffset":973832,
			"target":34962
		},
		{
			"buffer":0,
			"byteLength":109056,
			"byteOffset":1057160,
			"target":34963
		},
		{
			"buffer":0,
			"byteLength":21504,
			"byteOffset":1166216,
			"target":34962
		},
		{
			"buffer":0,
			"byteLength":21504,
			"byteOffset":1187720,
			"target":34962
		},
		{
			"buffer":0,
			"byteLength":14336,
			"byteOffset":1209224,
			"target":34962
		},
		{
			"buffer":0,
			"byteLength":18432,
			"byteOffset":1223560,
			"target":34963
		},
		{
			"buffer":0,
			"byteLength":88020,
			"byteOffset":1241992,
			"target":34962
		},
		{
			"buffer":0,
			"byteLength":88020,
			"byteOffset":1330012,
			"target":34962
		},
		{
			"buffer":0,
			"byteLength":58680,
			"byteOffset":1418032,
			"target":34962
		},
		{
			"buffer":0,
			"byteLength":72192,
			"byteOffset":1476712,
			"target":34963
		},
		{
			"buffer":0,
			"byteLength":21504,
			"byteOffset":1548904,
			"target":34962
		},
		{
			"buffer":0,
			"byteLength":21504,
			"byteOffset":1570408,
			"target":34962
		},
		{
			"buffer":0,
			"byteLength":14336,
			"byteOffset":1591912,
			"target":34962
		},
		{
			"buffer":0,
			"byteLength":18432,
			"byteOffset":1606248,
			"target":34963
		},
		{
			"buffer":0,
			"byteLength":88020,
			"byteOffset":1624680,
			"target":34962
		},
		{
			"buffer":0,
			"byteLength":88020,
			"byteOffset":1712700,
			"target":34962
		},
		{
			"buffer":0,
			"byteLength":58680,
			"byteOffset":1800720,
			"target":34962
		},
		{
			"buffer":0,
			"byteLength":21504,
			"byteOffset":1859400,
			"target":34962
		},
		{
			"buffer":0,
			"byteLength":21504,
			"byteOffset":1880904,
			"target":34962
		},
		{
			"buffer":0,
			"byteLength":14336,
			"byteOffset":1902408,
			"target":34962
		},
		{
			"buffer":0,
			"byteLength":88020,
			"byteOffset":1916744,
			"target":34962
		},
		{
			"buffer":0,
			"byteLength":88020,
			"byteOffset":2004764,
			"target":34962
		},
		{
			"buffer":0,
			"byteLength":58680,
			"byteOffset":2092784,
			"target":34962
		},
		{
			"buffer":0,
			"byteLength":21504,
			"byteOffset":2151464,
			"target":34962
		},
		{
			"buffer":0,
			"byteLength":21504,
			"byteOffset":2172968,
			"target":34962
		},
		{
			"buffer":0,
			"byteLength":14336,
			"byteOffset":2194472,
			"target":34962
		},
		{
			"buffer":0,
			"byteLength":88020,
			"byteOffset":2208808,
			"target":34962
		},
		{
			"buffer":0,
			"byteLength":88020,
			"byteOffset":2296828,
			"target":34962
		},
		{
			"buffer":0,
			"byteLength":58680,
			"byteOffset":2384848,
			"target":34962
		},
		{
			"buffer":0,
			"byteLength":21504,
			"byteOffset":2443528,
			"target":34962
		},
		{
			"buffer":0,
			"byteLength":21504,
			"byteOffset":2465032,
			"target":34962
		},
		{
			"buffer":0,
			"byteLength":14336,
			"byteOffset":2486536,
			"target":34962
		},
		{
			"buffer":0,
			"byteLength":152088,
			"byteOffset":2500872,
			"target":34962
		},
		{
			"buffer":0,
			"byteLength":152088,
			"byteOffset":2652960,
			"target":34962
		},
		{
			"buffer":0,
			"byteLength":101392,
			"byteOffset":2805048,
			"target":34962
		},
		{
			"buffer":0,
			"byteLength":101392,
			"byteOffset":2906440,
			"target":34962
		},
		{
			"buffer":0,
			"byteLength":24516,
			"byteOffset":3007832,
			"target":34962
		},
		{
			"buffer":0,
			"byteLength":24516,
			"byteOffset":3032348,
			"target":34962
		},
		{
			"buffer":0,
			"byteLength":16344,
			"byteOffset":3056864,
			"target":34962
		},
		{
			"buffer":0,
			"byteLength":16344,
			"byteOffset":3073208,
			"target":34962
		},
		{
			"buffer":0,
			"byteLength":109524,
			"byteOffset":3089552,
			"target":34962
		},
		{
			"buffer":0,
			"byteLength":109524,
			"byteOffset":3199076,
			"target":34962
		},
		{
			"buffer":0,
			"byteLength":73016,
			"byteOffset":3308600,
			"target":34962
		},
		{
			"buffer":0,
			"byteLength":90624,
			"byteOffset":3381616,
			"target":34963
		},
		{
			"buffer":0,
			"byteLength":124992,
			"byteOffset":3472240,
			"target":34962
		},
		{
			"buffer":0,
			"byteLength":124992,
			"byteOffset":3597232,
			"target":34962
		},
		{
			"buffer":0,
			"byteLength":83328,
			"byteOffset":3722224,
			"target":34962
		},
		{
			"buffer":0,
			"byteLength":21504,
			"byteOffset":3805552,
			"target":34962
		},
		{
			"buffer":0,
			"byteLength":21504,
			"byteOffset":3827056,
			"target":34962
		},
		{
			"buffer":0,
			"byteLength":14336,
			"byteOffset":3848560,
			"target":34962
		},
		{
			"buffer":0,
			"byteLength":124992,
			"byteOffset":3862896,
			"target":34962
		},
		{
			"buffer":0,
			"byteLength":124992,
			"byteOffset":3987888,
			"target":34962
		},
		{
			"buffer":0,
			"byteLength":83328,
			"byteOffset":4112880,
			"target":34962
		},
		{
			"buffer":0,
			"byteLength":21504,
			"byteOffset":4196208,
			"target":34962
		},
		{
			"buffer":0,
			"byteLength":21504,
			"byteOffset":4217712,
			"target":34962
		},
		{
			"buffer":0,
			"byteLength":14336,
			"byteOffset":4239216,
			"target":34962
		}
	],
	"samplers":[
		{
			"magFilter":9729,
			"minFilter":9987
		}
	],
	"buffers":[
		{
			"byteLength":4253552,
			"uri":"untitled.bin"
		}
	]
}
